<svg xmlns="http://www.w3.org/2000/svg" xmlns:xlink="http://www.w3.org/1999/xlink" width="1920" height="2122" viewBox="0 0 1920 2122">
  <defs>
    <clipPath id="clip-Artboard_4">
      <rect width="1920" height="2122"/>
    </clipPath>
  </defs>
  <g id="Artboard_4" data-name="Artboard – 4" clip-path="url(#clip-Artboard_4)">
    <rect width="1920" height="2122" fill="#fff"/>
    <g id="Group_2" data-name="Group 2" transform="translate(584.005 13.876)">
      <path id="Path_771" data-name="Path 771" d="M622.286,12.592V2081.656" transform="translate(-60.428)" fill="none" stroke="#000" stroke-miterlimit="10" stroke-width="1"/>
      <path id="Path_772" data-name="Path 772" d="M1.865,685.386H1169.123" transform="translate(0 -65.53)" fill="none" stroke="#000" stroke-miterlimit="10" stroke-width="1"/>
      <path id="Path_773" data-name="Path 773" d="M9.923,1519.329H1220.816" transform="translate(-0.785 -146.755)" fill="none" stroke="#000" stroke-miterlimit="10" stroke-width="1"/>
      <path id="Path_774" data-name="Path 774" d="M377.159,68.424H539.525" transform="translate(-36.553 -5.438)" fill="none" stroke="#000" stroke-miterlimit="10" stroke-width="1"/>
      <path id="Path_775" data-name="Path 775" d="M385.336,117.484H545.242" transform="translate(-37.35 -10.216)" fill="none" stroke="#000" stroke-miterlimit="10" stroke-width="1"/>
      <path id="Path_776" data-name="Path 776" d="M388.061,169.27H535.667" transform="translate(-37.615 -15.26)" fill="none" stroke="#000" stroke-miterlimit="10" stroke-width="1"/>
      <path id="Path_777" data-name="Path 777" d="M393.512,218.33V565.2" transform="translate(-38.146 -20.039)" fill="none" stroke="#000" stroke-miterlimit="10" stroke-width="1"/>
      <path id="Path_778" data-name="Path 778" d="M60.994,253.762H243.041" transform="translate(-5.759 -23.49)" fill="none" stroke="#000" stroke-miterlimit="10" stroke-width="1"/>
      <path id="Path_779" data-name="Path 779" d="M90.975,316.45H238.581" transform="translate(-8.679 -29.596)" fill="none" stroke="#000" stroke-miterlimit="10" stroke-width="1"/>
      <path id="Path_780" data-name="Path 780" d="M107.329,381.863H250.014" transform="translate(-10.272 -35.967)" fill="none" stroke="#000" stroke-miterlimit="10" stroke-width="1"/>
      <path id="Path_781" data-name="Path 781" d="M235.37,401.686l1.361-31.756q13.13,6.994,26.864,12.769l-11.369,4.184a135.077,135.077,0,0,1,26.066,28.894,7.26,7.26,0,0,0-8.752,3.355A60.063,60.063,0,0,1,257.9,403.84c-2.339-4.387-4.3-9.274-8.32-12.2a23.127,23.127,0,0,1-15.549,12.163" transform="translate(-22.612 -34.804)" fill="none" stroke="#000" stroke-miterlimit="10" stroke-width="1"/>
      <path id="Path_782" data-name="Path 782" d="M56.115,446.56H232.777" transform="translate(-5.284 -42.268)" fill="none" stroke="#000" stroke-miterlimit="10" stroke-width="1"/>
      <path id="Path_783" data-name="Path 783" d="M254.065,459.9V636.567" transform="translate(-24.564 -43.568)" fill="none" stroke="#000" stroke-miterlimit="10" stroke-width="1"/>
      <path id="Path_784" data-name="Path 784" d="M237.716,657.854H44.994" transform="translate(-4.201 -62.848)" fill="none" stroke="#000" stroke-miterlimit="10" stroke-width="1"/>
      <path id="Path_785" data-name="Path 785" d="M56.115,442.111V626.8" transform="translate(-5.284 -41.835)" fill="none" stroke="#000" stroke-miterlimit="10" stroke-width="1"/>
      <path id="Path_786" data-name="Path 786" d="M182.892,404.3v14.053" transform="translate(-17.632 -38.152)" fill="none" stroke="#000" stroke-miterlimit="10" stroke-width="1"/>
      <path id="Path_787" data-name="Path 787" d="M170.409,415.978a135.791,135.791,0,0,0,11.581,13.374,55.272,55.272,0,0,1,13.393-14.495" transform="translate(-16.416 -39.18)" fill="none" stroke="#000" stroke-miterlimit="10" stroke-width="1"/>
      <path id="Path_788" data-name="Path 788" d="M69.447,494.227H195.384" transform="translate(-6.582 -46.911)" fill="none" stroke="#000" stroke-miterlimit="10" stroke-width="1"/>
      <path id="Path_789" data-name="Path 789" d="M72.769,527.448H216.7" transform="translate(-6.906 -50.147)" fill="none" stroke="#000" stroke-miterlimit="10" stroke-width="1"/>
      <path id="Path_790" data-name="Path 790" d="M81.074,577.279H193.518" transform="translate(-7.715 -55)" fill="none" stroke="#000" stroke-miterlimit="10" stroke-width="1"/>
      <path id="Path_791" data-name="Path 791" d="M76.091,617.144H223.017" transform="translate(-7.23 -58.883)" fill="none" stroke="#000" stroke-miterlimit="10" stroke-width="1"/>
      <path id="Path_792" data-name="Path 792" d="M398.341,162.414,505.323,55.431" transform="translate(-38.616 -4.172)" fill="none" stroke="#000" stroke-miterlimit="10" stroke-width="1"/>
      <path id="Path_793" data-name="Path 793" d="M394.694,40.843,518.135,164.285" transform="translate(-38.261 -2.752)" fill="none" stroke="#000" stroke-miterlimit="10" stroke-width="1"/>
      <path id="Path_794" data-name="Path 794" d="M665.036,173.153h536.627" transform="translate(-64.592 -15.639)" fill="none" stroke="#000" stroke-miterlimit="10" stroke-width="1"/>
      <path id="Path_795" data-name="Path 795" d="M870.91,82.723H950.8" transform="translate(-84.644 -6.831)" fill="none" stroke="#000" stroke-miterlimit="10" stroke-width="1"/>
      <path id="Path_796" data-name="Path 796" d="M1028.683,82.723h79.886" transform="translate(-100.011 -6.831)" fill="none" stroke="#000" stroke-miterlimit="10" stroke-width="1"/>
      <path id="Path_797" data-name="Path 797" d="M1180.683,84.647h93.779" transform="translate(-114.816 -7.018)" fill="none" stroke="#000" stroke-miterlimit="10" stroke-width="1"/>
      <path id="Path_798" data-name="Path 798" d="M876.824,45.808c1.561-6.112,10.322-7.362,15.771-4.183s8.747,8.951,13.012,13.6c1.022,1.113,2.256,2.236,3.766,2.294,1.578.061,2.929-1.052,4.109-2.1l12.436-11.064" transform="translate(-85.22 -2.663)" fill="none" stroke="#000" stroke-miterlimit="10" stroke-width="1"/>
      <path id="Path_799" data-name="Path 799" d="M1012.566,40.264c6.376-4.3,13.036-8.723,20.647-9.84s16.448,2.117,19.246,9.281c.639,1.636,1.12,3.616,2.723,4.334a5.445,5.445,0,0,0,3.819-.255l33.7-10.767" transform="translate(-98.441 -1.716)" fill="none" stroke="#000" stroke-miterlimit="10" stroke-width="1"/>
      <path id="Path_800" data-name="Path 800" d="M1167.207,35.557a193.7,193.7,0,0,1,49.7-9.034,13.252,13.252,0,0,1,5.9.638c8.179,3.517,3.193,17.354,9.21,23.914,3.728,4.064,10.124,3.706,15.6,3.032l18.656-2.3" transform="translate(-113.503 -1.352)" fill="none" stroke="#000" stroke-miterlimit="10" stroke-width="1"/>
      <path id="Path_801" data-name="Path 801" d="M915.163,90.419" transform="translate(-88.954 -7.58)" fill="none" stroke="#000" stroke-miterlimit="10" stroke-width="1"/>
      <path id="Path_802" data-name="Path 802" d="M917.4,108.5a87.818,87.818,0,0,1,.746-16.424,2.155,2.155,0,0,1,.533-1.358c.576-.517,1.476-.284,2.2-.023l14.979,5.389a42.377,42.377,0,0,0-7.107,4.814,66.541,66.541,0,0,1,18.188,16.952,26.656,26.656,0,0,1-8.687,4.16l-8.1-12.722c-.367-.576-.852-1.22-1.535-1.213a2.035,2.035,0,0,0-1.087.469l-11.294,7.814a16.789,16.789,0,0,1,1.175-10.69" transform="translate(-89.021 -7.579)" fill="none" stroke="#000" stroke-miterlimit="10" stroke-width="1"/>
      <path id="Path_803" data-name="Path 803" d="M772.037,142.871h202.7" transform="translate(-75.014 -12.689)" fill="none" stroke="#000" stroke-miterlimit="10" stroke-width="1"/>
      <path id="Path_804" data-name="Path 804" d="M1001.34,142.938V344.833" transform="translate(-97.348 -12.696)" fill="none" stroke="#000" stroke-miterlimit="10" stroke-width="1"/>
      <path id="Path_805" data-name="Path 805" d="M976.441,368.395H745.7" transform="translate(-72.449 -34.655)" fill="none" stroke="#000" stroke-miterlimit="10" stroke-width="1"/>
      <path id="Path_806" data-name="Path 806" d="M745.7,142.938V352.845" transform="translate(-72.449 -12.696)" fill="none" stroke="#000" stroke-miterlimit="10" stroke-width="1"/>
      <path id="Path_807" data-name="Path 807" d="M759.906,203.3H960.2" transform="translate(-73.833 -18.574)" fill="none" stroke="#000" stroke-miterlimit="10" stroke-width="1"/>
      <path id="Path_808" data-name="Path 808" d="M767.007,292.059H940.06" transform="translate(-74.524 -27.22)" fill="none" stroke="#000" stroke-miterlimit="10" stroke-width="1"/>
      <path id="Path_809" data-name="Path 809" d="M855.769,80.8v36.854" transform="translate(-83.17 -6.644)" fill="none" stroke="#000" stroke-miterlimit="10" stroke-width="1"/>
      <path id="Path_810" data-name="Path 810" d="M827.468,104.891a102.881,102.881,0,0,1,30.795,22.532c.553-5.933,1.144-12.009,3.712-17.387s7.565-10,13.51-10.4" transform="translate(-80.413 -8.478)" fill="none" stroke="#000" stroke-miterlimit="10" stroke-width="1"/>
      <path id="Path_811" data-name="Path 811" d="M30.5,762.023V880.287" transform="translate(-2.789 -72.994)" fill="none" stroke="#000" stroke-miterlimit="10" stroke-width="1"/>
      <path id="Path_812" data-name="Path 812" d="M30.528,895.59q86.514-2.876,173.1-1.641" transform="translate(-2.792 -85.807)" fill="none" stroke="#000" stroke-miterlimit="10" stroke-width="1"/>
      <path id="Path_813" data-name="Path 813" d="M220.392,882.371V765.821" transform="translate(-21.284 -73.364)" fill="none" stroke="#000" stroke-miterlimit="10" stroke-width="1"/>
      <path id="Path_814" data-name="Path 814" d="M199.443,765.821H22.9" transform="translate(-2.049 -73.364)" fill="none" stroke="#000" stroke-miterlimit="10" stroke-width="1"/>
      <path id="Path_815" data-name="Path 815" d="M262.169,769.619V879.313" transform="translate(-25.353 -73.734)" fill="none" stroke="#000" stroke-miterlimit="10" stroke-width="1"/>
      <path id="Path_816" data-name="Path 816" d="M262.169,891.15H404.428" transform="translate(-25.353 -85.571)" fill="none" stroke="#000" stroke-miterlimit="10" stroke-width="1"/>
      <path id="Path_817" data-name="Path 817" d="M419.779,877.6V769.619" transform="translate(-40.704 -73.734)" fill="none" stroke="#000" stroke-miterlimit="10" stroke-width="1"/>
      <path id="Path_818" data-name="Path 818" d="M399.841,767.72H267.865" transform="translate(-25.908 -73.549)" fill="none" stroke="#000" stroke-miterlimit="10" stroke-width="1"/>
      <path id="Path_819" data-name="Path 819" d="M457.758,763.922v116.55" transform="translate(-44.404 -73.179)" fill="none" stroke="#000" stroke-miterlimit="10" stroke-width="1"/>
      <path id="Path_820" data-name="Path 820" d="M457.758,893.049H567.452" transform="translate(-44.404 -85.756)" fill="none" stroke="#000" stroke-miterlimit="10" stroke-width="1"/>
      <path id="Path_821" data-name="Path 821" d="M581.607,879.724l-1.534-123.408" transform="translate(-56.317 -72.438)" fill="none" stroke="#000" stroke-miterlimit="10" stroke-width="1"/>
      <path id="Path_822" data-name="Path 822" d="M566.293,756.326H463.455" transform="translate(-44.958 -72.439)" fill="none" stroke="#000" stroke-miterlimit="10" stroke-width="1"/>
      <path id="Path_823" data-name="Path 823" d="M85.673,823.829a34.327,34.327,0,0,1,26.916-25.375c3.161-.546,6.67-.559,9.272,1.317,2.057,1.484,3.2,3.886,4.518,6.049,7.548,12.348,24.068,18.363,37.787,13.755" transform="translate(-8.163 -76.511)" fill="none" stroke="#000" stroke-miterlimit="10" stroke-width="1"/>
      <path id="Path_824" data-name="Path 824" d="M281.793,829.6a40.149,40.149,0,0,1,60.866-3.118,8.671,8.671,0,0,0,3.14,2.492c1.875.662,3.908-.175,5.753-.915A64.622,64.622,0,0,1,382.31,823.8" transform="translate(-27.265 -78.056)" fill="none" stroke="#000" stroke-miterlimit="10" stroke-width="1"/>
      <path id="Path_825" data-name="Path 825" d="M490.2,833.284c-2.049-7.008,1.228-14.359,4.5-20.885,4.9-9.763,11.768-20.7,22.659-21.524,17.633-1.338,25.973,23.944,43.125,28.25" transform="translate(-47.502 -75.799)" fill="none" stroke="#000" stroke-miterlimit="10" stroke-width="1"/>
      <path id="Path_826" data-name="Path 826" d="M39.995,970.905H519.906" transform="translate(-3.714 -93.339)" fill="none" stroke="#000" stroke-miterlimit="10" stroke-width="1"/>
      <path id="Path_827" data-name="Path 827" d="M573.592,972.8V1420.15" transform="translate(-55.686 -93.524)" fill="none" stroke="#000" stroke-miterlimit="10" stroke-width="1"/>
      <path id="Path_828" data-name="Path 828" d="M509.623,1468.423H39.995" transform="translate(-3.714 -141.797)" fill="none" stroke="#000" stroke-miterlimit="10" stroke-width="1"/>
      <path id="Path_829" data-name="Path 829" d="M38.1,1408.756V961.41" transform="translate(-3.529 -92.414)" fill="none" stroke="#000" stroke-miterlimit="10" stroke-width="1"/>
      <path id="Path_830" data-name="Path 830" d="M155.621,1157a758.867,758.867,0,0,0,23.915,186.891" transform="translate(-14.976 -111.464)" fill="none" stroke="#000" stroke-miterlimit="10" stroke-width="1"/>
      <path id="Path_831" data-name="Path 831" d="M200.159,1149.625a646.506,646.506,0,0,0,48.448,155.292" transform="translate(-19.314 -110.746)" fill="none" stroke="#000" stroke-miterlimit="10" stroke-width="1"/>
      <path id="Path_832" data-name="Path 832" d="M209.271,1144.967a351.083,351.083,0,0,0,62.812,45.707,645.153,645.153,0,0,1-1.266-119.271c23.514,61.647,43.731,124.49,63.937,187.3" transform="translate(-20.201 -103.127)" fill="none" stroke="#000" stroke-miterlimit="10" stroke-width="1"/>
      <path id="Path_833" data-name="Path 833" d="M413.251,1081.132l-21.129-.323a12.28,12.28,0,0,0-5.908.89c-2.222,1.158-3.5,3.528-4.574,5.792-12.769,26.88-15.333,59.16-3.741,86.569s38.221,48.738,67.9,50.88c4.577.33,9.763-.021,12.818-3.444,2.355-2.64,2.8-6.422,3.1-9.948q1.86-21.91,1.621-43.93c-.14-12.763-1.009-26.177-7.85-36.952-.827-1.3-1.907-2.661-3.434-2.863a5.764,5.764,0,0,0-3.429,1.046L413.6,1148.4" transform="translate(-35.903 -104.043)" fill="none" stroke="#000" stroke-miterlimit="10" stroke-width="1"/>
      <path id="Path_834" data-name="Path 834" d="M136.452,911.83l.019-37.929a135.753,135.753,0,0,0,35.79,4.608,66.034,66.034,0,0,0-16.3,8.9A109.106,109.106,0,0,1,181,911.076a15.043,15.043,0,0,0-9.874,3.722c-.42.371-.914.8-1.464.686a1.728,1.728,0,0,1-.963-.808,87.532,87.532,0,0,1-7.249-12.114c-1.539-3.119-3.053-6.517-6.014-8.34A52.73,52.73,0,0,1,138.3,912.247" transform="translate(-13.109 -83.891)" fill="none" stroke="#000" stroke-miterlimit="10" stroke-width="1"/>
      <path id="Path_835" data-name="Path 835" d="M50.789,793.49A9.74,9.74,0,0,1,56.9,781.007q.885,49.037.267,98.085c8.582-26.473,17.245-53.134,30.7-77.494l1.209,61.564c7.364-21.223,14.839-42.673,26.988-61.567l3.127,70.74c5.409-25.043,10.852-50.2,20.055-74.114l5.7,17.728a39.641,39.641,0,0,1,8.657-23.739,319.12,319.12,0,0,0,15.593,66.678,278.964,278.964,0,0,1,7.942-71.746,280.064,280.064,0,0,1,12.7,45.812" transform="translate(-4.707 -74.843)" fill="none" stroke="#000" stroke-miterlimit="10" stroke-width="1"/>
      <path id="Path_836" data-name="Path 836" d="M690.134,916.925h466.089" transform="translate(-67.037 -88.081)" fill="none" stroke="#000" stroke-miterlimit="10" stroke-width="1"/>
      <path id="Path_837" data-name="Path 837" d="M713.443,931.269h508.166" transform="translate(-69.307 -89.478)" fill="none" stroke="#000" stroke-miterlimit="10" stroke-width="1"/>
      <path id="Path_838" data-name="Path 838" d="M706.3,966.245l393-3.233c61.12-.5,122.32-1,183.28,3.451" transform="translate(-68.611 -92.539)" fill="none" stroke="#000" stroke-miterlimit="10" stroke-width="1"/>
      <path id="Path_839" data-name="Path 839" d="M718.822,1004.782h493.6" transform="translate(-69.831 -96.638)" fill="none" stroke="#000" stroke-miterlimit="10" stroke-width="1"/>
      <path id="Path_840" data-name="Path 840" d="M684.755,721.488V857.431" transform="translate(-66.513 -69.046)" fill="none" stroke="#000" stroke-miterlimit="10" stroke-width="1"/>
      <path id="Path_841" data-name="Path 841" d="M749.668,716.13a1187.588,1187.588,0,0,0,1.895,135.989" transform="translate(-72.727 -68.524)" fill="none" stroke="#000" stroke-miterlimit="10" stroke-width="1"/>
      <path id="Path_842" data-name="Path 842" d="M675.875,807.433q42.7-5.156,85.668-7.61" transform="translate(-65.648 -76.676)" fill="none" stroke="#000" stroke-miterlimit="10" stroke-width="1"/>
      <path id="Path_843" data-name="Path 843" d="M812.429,723.3a1126.239,1126.239,0,0,0,2.1,135.975" transform="translate(-78.838 -69.223)" fill="none" stroke="#000" stroke-miterlimit="10" stroke-width="1"/>
      <path id="Path_844" data-name="Path 844" d="M941.154,719.7h50.169" transform="translate(-91.486 -68.871)" fill="none" stroke="#000" stroke-miterlimit="10" stroke-width="1"/>
      <path id="Path_845" data-name="Path 845" d="M1057.708,718.033a414.035,414.035,0,0,1,59.878,1.391" transform="translate(-102.838 -68.661)" fill="none" stroke="#000" stroke-miterlimit="10" stroke-width="1"/>
      <path id="Path_846" data-name="Path 846" d="M1168.865,714.316h59.88" transform="translate(-113.665 -68.347)" fill="none" stroke="#000" stroke-miterlimit="10" stroke-width="1"/>
      <path id="Path_847" data-name="Path 847" d="M691.173,1074V1378.3" transform="translate(-67.138 -103.381)" fill="none" stroke="#000" stroke-miterlimit="10" stroke-width="1"/>
      <path id="Path_848" data-name="Path 848" d="M691.173,1414.341h533.236" transform="translate(-67.138 -136.529)" fill="none" stroke="#000" stroke-miterlimit="10" stroke-width="1"/>
      <path id="Path_849" data-name="Path 849" d="M1281.254,1371.8a917.884,917.884,0,0,0-25.566-304.072" transform="translate(-122.121 -102.769)" fill="none" stroke="#000" stroke-miterlimit="10" stroke-width="1"/>
      <path id="Path_850" data-name="Path 850" d="M1203.1,1064.37H710.438" transform="translate(-69.014 -102.442)" fill="none" stroke="#000" stroke-miterlimit="10" stroke-width="1"/>
      <path id="Path_851" data-name="Path 851" d="M790.706,1135.007" transform="translate(-76.832 -109.322)" fill="none" stroke="#000" stroke-miterlimit="10" stroke-width="1"/>
      <path id="Path_852" data-name="Path 852" d="M39.392,1629.461v489.765" transform="translate(-3.655 -157.482)" fill="none" stroke="#000" stroke-miterlimit="10" stroke-width="1"/>
      <path id="Path_853" data-name="Path 853" d="M45.817,2174.014q234.768,4.295,469.384-10.037" transform="translate(-4.281 -209.543)" fill="none" stroke="#000" stroke-miterlimit="10" stroke-width="1"/>
      <path id="Path_854" data-name="Path 854" d="M562.743,2113.43V1629.461" transform="translate(-54.629 -157.482)" fill="none" stroke="#000" stroke-miterlimit="10" stroke-width="1"/>
      <path id="Path_855" data-name="Path 855" d="M495.4,1626.25H20.128" transform="translate(-1.779 -157.169)" fill="none" stroke="#000" stroke-miterlimit="10" stroke-width="1"/>
      <path id="Path_856" data-name="Path 856" d="M129.293,1738.626v269.517" transform="translate(-12.411 -168.114)" fill="none" stroke="#000" stroke-miterlimit="10" stroke-width="1"/>
      <path id="Path_857" data-name="Path 857" d="M216.681,1738.661q-5.284,140.558,3.128,281.187" transform="translate(-20.724 -168.118)" fill="none" stroke="#000" stroke-miterlimit="10" stroke-width="1"/>
      <path id="Path_858" data-name="Path 858" d="M90.764,1918.428H186.4" transform="translate(-8.659 -185.627)" fill="none" stroke="#000" stroke-miterlimit="10" stroke-width="1"/>
      <path id="Path_859" data-name="Path 859" d="M277.379,1789.785a135.72,135.72,0,0,0,86.253-72.445,1341.128,1341.128,0,0,0-22.478,306.1" transform="translate(-26.835 -166.041)" fill="none" stroke="#000" stroke-miterlimit="10" stroke-width="1"/>
      <path id="Path_860" data-name="Path 860" d="M75.783,1579.458q37.5-1.354,75.016.923" transform="translate(-7.2 -152.562)" fill="none" stroke="#000" stroke-miterlimit="10" stroke-width="1"/>
      <path id="Path_861" data-name="Path 861" d="M232.562,1576.177H308.98" transform="translate(-22.47 -152.292)" fill="none" stroke="#000" stroke-miterlimit="10" stroke-width="1"/>
      <path id="Path_862" data-name="Path 862" d="M395.619,1571.473H521.568" transform="translate(-38.351 -151.834)" fill="none" stroke="#000" stroke-miterlimit="10" stroke-width="1"/>
      <path id="Path_863" data-name="Path 863" d="M624.056,1674.7h658.961" transform="translate(-60.601 -161.888)" fill="none" stroke="#000" stroke-miterlimit="10" stroke-width="1"/>
      <path id="Path_864" data-name="Path 864" d="M610.083,2177.714h658.961" transform="translate(-59.24 -210.881)" fill="none" stroke="#000" stroke-miterlimit="10" stroke-width="1"/>
      <path id="Path_865" data-name="Path 865" d="M774.261,1908.741h403.575" transform="translate(-75.231 -184.683)" fill="none" stroke="#000" stroke-miterlimit="10" stroke-width="1"/>
      <path id="Path_866" data-name="Path 866" d="M919.376,1800.061c-8,5.717-3.475,19.653,5.455,23.763s19.329,1.747,28.955-.252a324.985,324.985,0,0,1,73.754-6.684" transform="translate(-88.961 -174.098)" fill="none" stroke="#000" stroke-miterlimit="10" stroke-width="1"/>
      <path id="Path_867" data-name="Path 867" d="M882.846,1977.254c22.083-1.154,39.63-29.944,60.3-22.077,8.512,3.24,14.5,12.349,23.569,13.239,3.548.348,7.07-.659,10.529-1.524a138.674,138.674,0,0,1,53.383-2.689" transform="translate(-85.807 -189.074)" fill="none" stroke="#000" stroke-miterlimit="10" stroke-width="1"/>
      <path id="Path_868" data-name="Path 868" d="M706.292,1808.317a213.545,213.545,0,0,1,20.18-107.605c2.8-5.852,6.8-12.263,13.231-13.109,7.6-1,13.732,6.6,15.6,14.033,6.658,26.493-18.028,49.021-34.554,70.771-31.713,41.736-36.923,97.432-37.683,149.844-.392,27.058,1.3,57.15,20.561,76.154,17.581,17.343,45.969,21.093,61.635,40.182" transform="translate(-66.344 -163.136)" fill="none" stroke="#000" stroke-miterlimit="10" stroke-width="1"/>
      <path id="Path_869" data-name="Path 869" d="M1155.454,2028.792c34.693,2.027,64.559-28.189,74.456-61.5s4.688-68.985-.063-103.41c-.476-3.444-.935-7.023.112-10.338,2.922-9.246,14.844-11.189,24.486-12.229s21.634-5.459,21.7-15.156c.031-4.261-2.48-8.091-5.1-11.448-20.452-26.169-54.482-41.086-87.586-38.391" transform="translate(-112.359 -171.755)" fill="none" stroke="#000" stroke-miterlimit="10" stroke-width="1"/>
      <path id="Path_870" data-name="Path 870" d="M735.837,1601.344h75.67" transform="translate(-71.488 -154.743)" fill="none" stroke="#000" stroke-miterlimit="10" stroke-width="1"/>
      <path id="Path_871" data-name="Path 871" d="M927.96,1597.851h78.823" transform="translate(-90.201 -154.403)" fill="none" stroke="#000" stroke-miterlimit="10" stroke-width="1"/>
      <path id="Path_872" data-name="Path 872" d="M1123.577,1597.851h63.058" transform="translate(-109.254 -154.403)" fill="none" stroke="#000" stroke-miterlimit="10" stroke-width="1"/>
      <path id="Path_873" data-name="Path 873" d="M1266.8,1601.344h50.446" transform="translate(-123.203 -154.743)" fill="none" stroke="#000" stroke-miterlimit="10" stroke-width="1"/>
    </g>
  </g>
</svg>
