<svg xmlns="http://www.w3.org/2000/svg" xmlns:xlink="http://www.w3.org/1999/xlink" width="1920" height="1080" viewBox="0 0 1920 1080">
  <defs>
    <clipPath id="clip-Artboard_1">
      <rect width="1920" height="1080"/>
    </clipPath>
  </defs>
  <g id="Artboard_1" data-name="Artboard – 1" clip-path="url(#clip-Artboard_1)">
    <rect width="1920" height="1080" fill="#fff"/>
    <rect id="Rectangle_33" data-name="Rectangle 33" width="166" height="166" transform="translate(970 477)" fill="#e24f27"/>
    <rect id="Rectangle_35" data-name="Rectangle 35" width="166" height="166" transform="translate(785 477)" fill="#ecb73e"/>
    <rect id="Rectangle_39" data-name="Rectangle 39" width="166" height="166" transform="translate(970 849)"/>
    <rect id="Rectangle_38" data-name="Rectangle 38" width="166" height="166" transform="translate(785 663)" fill="#7c877d"/>
    <rect id="Rectangle_34" data-name="Rectangle 34" width="166" height="166" transform="translate(970 663)" fill="#6b8498"/>
    <rect id="Rectangle_37" data-name="Rectangle 37" width="166" height="166" transform="translate(785 849)" fill="#e2937e"/>
    <text id="Styletile" transform="translate(72 214)" font-size="200" font-family="Roboto-Bold, Roboto" font-weight="700"><tspan x="0" y="0">Styletile</tspan></text>
    <text id="Fonts" transform="translate(96 408)" font-size="100" font-family="Roboto-Bold, Roboto" font-weight="700"><tspan x="0" y="0">Fonts</tspan></text>
    <text id="Farver" transform="translate(785 408)" font-size="100" font-family="Roboto-Bold, Roboto" font-weight="700"><tspan x="0" y="0">Farver</tspan></text>
    <text id="UI" transform="translate(1411 408)" font-size="100" font-family="Roboto-Bold, Roboto" font-weight="700"><tspan x="0" y="0">UI</tspan></text>
    <text id="H1" transform="translate(96 718)" font-size="140" font-family="Roboto-Bold, Roboto" font-weight="700"><tspan x="0" y="0">H1</tspan></text>
    <text id="H2" transform="translate(96 922)" font-size="112" font-family="Roboto-Bold, Roboto" font-weight="700"><tspan x="0" y="0">H2</tspan></text>
    <text id="H3" transform="translate(458 680)" font-size="64" font-family="Roboto-Bold, Roboto" font-weight="700"><tspan x="0" y="0">H3</tspan></text>
    <text id="Roboto_bold" data-name="Roboto, bold" transform="translate(96 779)" font-size="24" font-family="Roboto-Bold, Roboto" font-weight="700"><tspan x="0" y="0">Roboto, bold</tspan></text>
    <text id="Roboto_bold-2" data-name="Roboto, bold" transform="translate(96 978)" font-size="24" font-family="Roboto-Bold, Roboto" font-weight="700"><tspan x="0" y="0">Roboto, bold</tspan></text>
    <text id="Roboto_bold-3" data-name="Roboto, bold" transform="translate(458 723)" font-size="24" font-family="Roboto-Bold, Roboto" font-weight="700"><tspan x="0" y="0">Roboto, bold</tspan></text>
    <text id="Home" transform="translate(1278.463 540)" font-size="40" font-family="Roboto-Regular, Roboto"><tspan x="0" y="42">Home</tspan></text>
    <text id="Om_mig" data-name="Om mig" transform="translate(1445.463 540)" font-size="40" font-family="Roboto-Regular, Roboto"><tspan x="0" y="42">Om mig</tspan></text>
    <text id="Portfolio" transform="translate(1654.463 540)" font-size="40" font-family="Roboto-Regular, Roboto"><tspan x="0" y="42">Portfolio</tspan></text>
    <line id="Line_114" data-name="Line 114" x2="125.99" transform="translate(1270.456 603.244)" fill="none" stroke="#e24f27" stroke-width="3"/>
    <line id="Line_115" data-name="Line 115" x2="71" transform="translate(1279.047 692.744)" fill="none" stroke="#000" stroke-width="3"/>
    <line id="Line_116" data-name="Line 116" x2="71" transform="translate(1279.047 707.744)" fill="none" stroke="#000" stroke-width="3"/>
    <line id="Line_117" data-name="Line 117" x2="71" transform="translate(1279.047 722.744)" fill="none" stroke="#000" stroke-width="3"/>
    <path id="Path_5" data-name="Path 5" d="M17211.023,377.107l29.623,31.029,32.256-31.029" transform="translate(-15940.566 525.458)" fill="none" stroke="#000" stroke-width="3"/>
    <path id="Path_6" data-name="Path 6" d="M0,0,29.622,31.03,61.881,0" transform="translate(1461.527 948.498) rotate(-90)" fill="none" stroke="#000" stroke-width="3"/>
    <path id="Path_7" data-name="Path 7" d="M0,0,29.622,31.03,61.881,0" transform="matrix(-0.035, 0.999, -0.999, -0.035, 1432.564, 887.7)" fill="none" stroke="#000" stroke-width="3"/>
    <text id="Portfolio." transform="translate(96 523)" font-size="55" font-family="Roboto-Bold, Roboto" font-weight="700"><tspan x="0" y="0">Portfolio.</tspan></text>
    <text id="Citat" transform="translate(460 820)" font-size="56" font-family="Roboto-Light, Roboto" font-weight="300"><tspan x="0" y="0">Citat</tspan></text>
    <text id="P" transform="translate(460 948)" font-size="48" font-family="Roboto-Regular, Roboto"><tspan x="0" y="0">P</tspan></text>
    <text id="Roboto_regular" data-name="Roboto, regular" transform="translate(460 990)" font-size="24" font-family="Roboto-Light, Roboto" font-weight="300"><tspan x="0" y="0">Roboto, regular</tspan></text>
    <text id="Roboto_light" data-name="Roboto, light" transform="translate(460 863)" font-size="24" font-family="Roboto-Light, Roboto" font-weight="300"><tspan x="0" y="0">Roboto, light</tspan></text>
    <text id="LOGO" transform="translate(96 565)" font-size="24" font-family="Roboto-Bold, Roboto" font-weight="700"><tspan x="0" y="0">LOGO</tspan></text>
    <text id="Navigation" transform="translate(1270 502)" font-size="24" font-family="Roboto-Bold, Roboto" font-weight="700"><tspan x="0" y="0">Navigation</tspan></text>
    <text id="Pile_" data-name="Pile " transform="translate(1270 854)" font-size="24" font-family="Roboto-Bold, Roboto" font-weight="700"><tspan x="0" y="0">Pile </tspan></text>
    <text id="Knapper" transform="translate(1658 854)" font-size="24" font-family="Roboto-Bold, Roboto" font-weight="700"><tspan x="0" y="0">Knapper</tspan></text>
    <text id="Klik_her" data-name="Klik her" transform="translate(1600 947)" font-size="24" font-family="Roboto-Regular, Roboto"><tspan x="0" y="0">Klik her</tspan></text>
    <text id="Klik_her-2" data-name="Klik her" transform="translate(1759 946)" font-size="24" font-family="Roboto-Regular, Roboto"><tspan x="0" y="0">Klik her</tspan></text>
    <line id="Line_118" data-name="Line 118" x2="92.5" transform="translate(1752.25 960.5)" fill="none" stroke="#e24f27" stroke-width="3"/>
  </g>
</svg>
